  0
SECTION
  2
HEADER
  9
$ACADVER
  1
AC1009
  9
$DWGCODEPAGE
  3
ansi_1251
  9
$INSBASE
 10
0.0
 20
0.0
 30
0.0
  9
$EXTMIN
 10
1.000000E+20
 20
1.000000E+20
 30
1.000000E+20
  9
$EXTMAX
 10
-1.000000E+20
 20
-1.000000E+20
 30
-1.000000E+20
  9
$LIMMIN
 10
0.0
 20
0.0
  9
$LIMMAX
 10
420.0
 20
297.0
  9
$ORTHOMODE
 70
     1
  9
$REGENMODE
 70
     1
  9
$FILLMODE
 70
     0
  9
$QTEXTMODE
 70
     0
  9
$MIRRTEXT
 70
     0
  9
$DRAGMODE
 70
     2
  9
$LTSCALE
 40
1.0
  9
$OSMODE
 70
    37
  9
$ATTMODE
 70
     1
  9
$TEXTSIZE
 40
293.402868
  9
$TRACEWID
 40
1.0
  9
$TEXTSTYLE
  7
ГОСТ_2_304
  9
$CLAYER
  8
0
  9
$CELTYPE
  6
BYLAYER
  9
$CECOLOR
 62
   256
  9
$DIMSCALE
 40
0.0
  9
$DIMASZ
 40
3.0
  9
$DIMEXO
 40
0.0
  9
$DIMDLI
 40
8.0
  9
$DIMRND
 40
0.0
  9
$DIMDLE
 40
0.0
  9
$DIMEXE
 40
1.25
  9
$DIMTP
 40
0.0
  9
$DIMTM
 40
0.0
  9
$DIMTXT
 40
3.0
  9
$DIMCEN
 40
5.0
  9
$DIMTSZ
 40
0.0
  9
$DIMTOL
 70
     0
  9
$DIMLIM
 70
     0
  9
$DIMTIH
 70
     0
  9
$DIMTOH
 70
     1
  9
$DIMSE1
 70
     0
  9
$DIMSE2
 70
     0
  9
$DIMTAD
 70
     1
  9
$DIMZIN
 70
     8
  9
$DIMBLK
  1

  9
$DIMASO
 70
     1
  9
$DIMSHO
 70
     1
  9
$DIMPOST
  1

  9
$DIMAPOST
  1

  9
$DIMALT
 70
     0
  9
$DIMALTD
 70
     2
  9
$DIMALTF
 40
25.4
  9
$DIMLFAC
 40
1.0
  9
$DIMTOFL
 70
     1
  9
$DIMTVP
 40
0.0
  9
$DIMTIX
 70
     0
  9
$DIMSOXD
 70
     0
  9
$DIMSAH
 70
     0
  9
$DIMBLK1
  1

  9
$DIMBLK2
  1

  9
$DIMSTYLE
  2
ЕСКД
  9
$DIMCLRD
 70
     0
  9
$DIMCLRE
 70
     0
  9
$DIMCLRT
 70
     0
  9
$DIMTFAC
 40
0.75
  9
$DIMGAP
 40
0.625
  9
$LUNITS
 70
     2
  9
$LUPREC
 70
     0
  9
$SKETCHINC
 40
1.0
  9
$FILLETRAD
 40
0.0
  9
$AUNITS
 70
     0
  9
$AUPREC
 70
     0
  9
$MENU
  1
.
  9
$ELEVATION
 40
0.0
  9
$PELEVATION
 40
0.0
  9
$THICKNESS
 40
0.0
  9
$LIMCHECK
 70
     0
  9
$CHAMFERA
 40
0.0
  9
$CHAMFERB
 40
0.0
  9
$SKPOLY
 70
     0
  9
$TDCREATE
 40
2454083.03338338
  9
$TDUPDATE
 40
2460286.806902326
  9
$TDINDWG
 40
0.0105753588
  9
$TDUSRTIMER
 40
0.0105751736
  9
$USRTIMER
 70
     1
  9
$ANGBASE
 50
0.0
  9
$ANGDIR
 70
     0
  9
$PDMODE
 70
     0
  9
$PDSIZE
 40
0.0
  9
$PLINEWID
 40
0.0
  9
$COORDS
 70
     1
  9
$SPLFRAME
 70
     0
  9
$SPLINETYPE
 70
     6
  9
$SPLINESEGS
 70
     8
  9
$ATTDIA
 70
     0
  9
$ATTREQ
 70
     1
  9
$HANDLING
 70
     1
  9
$HANDSEED
  5
900
  9
$SURFTAB1
 70
     6
  9
$SURFTAB2
 70
     6
  9
$SURFTYPE
 70
     6
  9
$SURFU
 70
     6
  9
$SURFV
 70
     6
  9
$UCSNAME
  2

  9
$UCSORG
 10
0.0
 20
0.0
 30
0.0
  9
$UCSXDIR
 10
1.0
 20
0.0
 30
0.0
  9
$UCSYDIR
 10
0.0
 20
1.0
 30
0.0
  9
$PUCSNAME
  2

  9
$PUCSORG
 10
0.0
 20
0.0
 30
0.0
  9
$PUCSXDIR
 10
1.0
 20
0.0
 30
0.0
  9
$PUCSYDIR
 10
0.0
 20
1.0
 30
0.0
  9
$USERI1
 70
     0
  9
$USERI2
 70
     0
  9
$USERI3
 70
     0
  9
$USERI4
 70
     0
  9
$USERI5
 70
     0
  9
$USERR1
 40
0.0
  9
$USERR2
 40
0.0
  9
$USERR3
 40
0.0
  9
$USERR4
 40
0.0
  9
$USERR5
 40
0.0
  9
$WORLDVIEW
 70
     1
  9
$SHADEDGE
 70
     3
  9
$SHADEDIF
 70
    70
  9
$TILEMODE
 70
     1
  9
$MAXACTVP
 70
    64
  9
$PLIMCHECK
 70
     0
  9
$PEXTMIN
 10
0.0
 20
0.0
 30
0.0
  9
$PEXTMAX
 10
0.0
 20
0.0
 30
0.0
  9
$PLIMMIN
 10
0.0
 20
0.0
  9
$PLIMMAX
 10
0.0
 20
0.0
  9
$UNITMODE
 70
     0
  9
$VISRETAIN
 70
     1
  9
$PLINEGEN
 70
     0
  9
$PSLTSCALE
 70
     0
  0
ENDSEC
  0
SECTION
  2
TABLES
  0
TABLE
  2
VPORT
 70
     1
  0
VPORT
  2
*ACTIVE
 70
     0
 10
0.0
 20
0.0
 11
1.0
 21
1.0
 12
29.179526
 22
-110.750078
 13
0.0
 23
0.0
 14
1.0
 24
1.0
 15
1.0
 25
1.0
 16
0.0
 26
0.0
 36
1.0
 17
210.0
 27
148.5
 37
0.0
 40
223.603534
 41
2.44782
 42
50.0
 43
0.0
 44
0.0
 50
0.0
 51
0.0
 71
    16
 72
  1000
 73
     1
 74
     3
 75
     1
 76
     1
 77
     0
 78
     0
  0
ENDTAB
  0
TABLE
  2
LTYPE
 70
     6
  0
LTYPE
  2
CONTINUOUS
 70
     0
  3
Solid line
 72
    65
 73
     0
 40
0.0
  0
LTYPE
  2
ГОСТ_2_303_3
 70
     0
  3
Сплошная волнистая ~~~~~~~~~~~~~~~~~~~
 72
    65
 73
     2
 40
26.001
 49
0.001
 49
-26.0
  0
LTYPE
  2
ГОСТ_2_303_5
 70
     0
  3
Штрих-пунктирная тонкая ____ _ ____ _ ____ _ __
 72
    65
 73
     4
 40
24.0
 49
20.0
 49
-1.5
 49
1.0
 49
-1.5
  0
LTYPE
  2
ГОСТ_2_303_4
 70
     0
  3
Штриховая __ __ __ __ __ __ __ __ __
 72
    65
 73
     3
 40
7.0
 49
5.0
 49
-2.0
 49
0.0
  0
LTYPE
  2
ГОСТ_2_303_6
 70
     0
  3
Штрих-пунктирная утолщенная ___ _ ___ _ ___ _ _
 72
    65
 73
     4
 40
12.0
 49
8.0
 49
-1.5
 49
1.0
 49
-1.5
  0
LTYPE
  2
ГОСТ_2_303_8
 70
     0
  3
Сплошная тонкая с изломами ---'\---'\---'\---'\
 72
    65
 73
     2
 40
48.0
 49
40.0
 49
-8.0
  0
ENDTAB
  0
TABLE
  2
LAYER
 70
     2
  0
LAYER
  2
0
 70
     0
 62
     7
  6
CONTINUOUS
  0
LAYER
  2
ШТРИХОВКИ
 70
     0
 62
    86
  6
CONTINUOUS
  0
ENDTAB
  0
TABLE
  2
STYLE
 70
     3
  0
STYLE
  2
STANDARD
 70
     0
 40
0.0
 41
1.0
 50
0.0
 71
     0
 42
2.5
  3
txt.shx
  4

  0
STYLE
  2

 70
     1
 40
0.0
 41
1.0
 50
0.0
 71
     0
 42
0.2
  3
GOST 2.303-68.shx
  4

  0
STYLE
  2
ГОСТ_2_304
 70
     0
 40
0.0
 41
1.0
 50
0.0
 71
     0
 42
293.402868
  3
CS_Gost2304.shx
  4

  0
ENDTAB
  0
TABLE
  2
VIEW
 70
     0
  0
ENDTAB
  0
TABLE
  2
UCS
 70
     0
  0
ENDTAB
  0
TABLE
  2
APPID
 70
    20
  0
APPID
  2
ACAD
 70
     0
  0
APPID
  2
ACAD_PSEXT
 70
     0
  0
APPID
  2
ACADANNOPO
 70
     0
  0
APPID
  2
ACADANNOTATIVE
 70
     0
  0
APPID
  2
ACAD_DSTYLE_DIMJAG
 70
     0
  0
APPID
  2
ACAD_DSTYLE_DIMTALN
 70
     0
  0
APPID
  2
ACAD_MLEADERVER
 70
     0
  0
APPID
  2
MCS_DIM1
 70
     0
  0
APPID
  2
MCSXDATA5
 70
     0
  0
APPID
  2
MCS_PARAMS_DATA
 70
     0
  0
APPID
  2
MCS_PARAMS_HIDDEN_DATA
 70
     0
  0
APPID
  2
MCS_DOCUMENT_ID
 70
     0
  0
APPID
  2
MCSUBENTIDENTIFICATION
 70
     0
  0
APPID
  2
MC_VERSION_DATA
 70
     0
  0
APPID
  2
ACAECLAYERSTANDARD
 70
     0
  0
APPID
  2
ACCMTRANSPARENCY
 70
     0
  0
APPID
  2
ACAD_NAV_VCDISPLAY
 70
     0
  0
APPID
  2
GRADIENTCOLOR1ACI
 70
     0
  0
APPID
  2
GRADIENTCOLOR2ACI
 70
     0
  0
APPID
  2
PLOTTRANSPARENCY
 70
     0
  0
ENDTAB
  0
TABLE
  2
DIMSTYLE
 70
     2
  0
DIMSTYLE
  2
STANDARD
 70
     0
  3

  4

  5

  6

  7

 40
100.0
 41
2.5
 42
0.5
 43
6.0
 44
0.0
 45
0.0
 46
0.0
 47
0.0
 48
0.0
140
2.5
141
2.5
142
0.0
143
25.4
144
1.0
145
0.0
146
1.0
147
1.0
 71
     0
 72
     0
 73
     0
 74
     1
 75
     0
 76
     0
 77
     0
 78
     0
170
     0
171
     2
172
     0
173
     0
174
     0
175
     0
176
     0
177
     0
178
     0
  0
DIMSTYLE
  2
ЕСКД
 70
     0
  3

  4

  5

  6

  7

 40
0.0
 41
3.0
 42
0.0
 43
8.0
 44
1.25
 45
0.0
 46
0.0
 47
0.0
 48
0.0
140
3.0
141
5.0
142
0.0
143
25.4
144
1.0
145
0.0
146
0.75
147
0.625
 71
     0
 72
     0
 73
     0
 74
     1
 75
     0
 76
     0
 77
     1
 78
     8
170
     0
171
     2
172
     1
173
     0
174
     0
175
     0
176
     0
177
     0
178
     0
  0
ENDTAB
  0
ENDSEC
  0
SECTION
  2
BLOCKS
  0
BLOCK
  8
0
  2
$MODEL_SPACE
 70
     0
 10
0.0
 20
0.0
 30
0.0
  3
$MODEL_SPACE
  1

  0
ENDBLK
  5
21
  8
0
  0
BLOCK
 67
     1
  8
0
  2
$PAPER_SPACE
 70
     0
 10
0.0
 20
0.0
 30
0.0
  3
$PAPER_SPACE
  1

  0
ENDBLK
  5
213
 67
     1
  8
0
  0
BLOCK
  8
0
  2
_ARCHTICK
 70
     0
 10
0.0
 20
0.0
 30
0.0
  3
_ARCHTICK
  1

  0
POLYLINE
  5
1EF
  8
0
  6
BYBLOCK
 62
     0
 66
     1
 10
0.0
 20
0.0
 30
0.0
 40
0.15
 41
0.15
  0
VERTEX
  5
1F0
  8
0
  6
BYBLOCK
 62
     0
 10
-0.5
 20
-0.5
 30
0.0
  0
VERTEX
  5
1F1
  8
0
  6
BYBLOCK
 62
     0
 10
0.5
 20
0.5
 30
0.0
  0
SEQEND
  5
1F2
  8
0
  6
BYBLOCK
 62
     0
  0
ENDBLK
  5
1EE
  8
0
  0
BLOCK
  8
0
  2
_OPEN30
 70
     0
 10
0.0
 20
0.0
 30
0.0
  3
_OPEN30
  1

  0
LINE
  5
1F7
  8
0
  6
BYBLOCK
 62
     0
 10
-1.0
 20
0.267949
 30
0.0
 11
0.0
 21
0.0
 31
0.0
  0
LINE
  5
1F8
  8
0
  6
BYBLOCK
 62
     0
 10
0.0
 20
0.0
 30
0.0
 11
-1.0
 21
-0.267949
 31
0.0
  0
LINE
  5
1F9
  8
0
  6
BYBLOCK
 62
     0
 10
0.0
 20
0.0
 30
0.0
 11
-1.0
 21
0.0
 31
0.0
  0
ENDBLK
  5
1F6
  8
0
  0
BLOCK
  8
0
  2
_DOT
 70
     0
 10
0.0
 20
0.0
 30
0.0
  3
_DOT
  1

  0
POLYLINE
  5
1FF
  8
0
  6
BYBLOCK
 62
     0
 66
     1
 10
0.0
 20
0.0
 30
0.0
 70
     1
 40
0.5
 41
0.5
  0
VERTEX
  5
201
  8
0
  6
BYBLOCK
 62
     0
 10
-0.25
 20
0.0
 30
0.0
 42
1.0
  0
VERTEX
  5
202
  8
0
  6
BYBLOCK
 62
     0
 10
0.25
 20
0.0
 30
0.0
 42
1.0
  0
SEQEND
  5
203
  8
0
  6
BYBLOCK
 62
     0
  0
LINE
  5
200
  8
0
  6
BYBLOCK
 62
     0
 10
-0.5
 20
0.0
 30
0.0
 11
-1.0
 21
0.0
 31
0.0
  0
ENDBLK
  5
1FE
  8
0
  0
BLOCK
  8
0
  2
_OBLIQUE
 70
     0
 10
0.0
 20
0.0
 30
0.0
  3
_OBLIQUE
  1

  0
LINE
  5
3BC
  8
0
  6
BYBLOCK
 62
     0
 10
-0.5
 20
-0.5
 30
0.0
 11
0.5
 21
0.5
 31
0.0
  0
ENDBLK
  5
3BD
  8
0
  0
BLOCK
  8
0
  2
*X10
 70
     1
 10
0.0
 20
0.0
 30
0.0
  3
*X10
  1

  0
ENDBLK
  5
8FA
  8
0
  0
ENDSEC
  0
SECTION
  2
ENTITIES
  0
LINE
  5
3F5
  8
0
 10
107.0
 20
73.999958
 30
0.0
 11
108.0
 21
74.000042
 31
0.0
  0
LINE
  5
421
  8
0
 10
116.098331
 20
105.38883
 30
0.0
 11
116.098341
 21
105.38883
 31
0.0
  0
POLYLINE
  5
55F
  8
0
 66
     1
 10
0.0
 20
0.0
 30
0.0
 70
     1
  0
VERTEX
  5
83C
  8
0
 10
0.0
 20
126.0
 30
0.0
  0
VERTEX
  5
83D
  8
0
 10
0.0
 20
0.0
 30
0.0
  0
VERTEX
  5
83E
  8
0
 10
229.0
 20
0.0
 30
0.0
  0
VERTEX
  5
83F
  8
0
 10
229.0
 20
126.0
 30
0.0
  0
VERTEX
  5
840
  8
0
 10
0.0
 20
126.0
 30
0.0
  0
SEQEND
  5
8FC
  8
0
  0
INSERT
  5
562
  8
ШТРИХОВКИ
 62
   251
  2
*X10
 10
0.0
 20
0.0
 30
0.0
1001
ACAD
1000
HATCH
1002
{
1070
    19
1000
ANSI31
1040
1.0
1040
0.0
1000
R14_HATCH_DATA
1000
562
1011
1.0
1021
0.0
1031
0.0
1021
0.0
1031
0.0
1011
0.0
1021
1.0
1031
0.0
1021
1.0
1031
0.0
1011
0.0
1021
0.0
1031
1.0
1021
0.0
1031
1.0
1040
0.0
1010
0.0
1020
0.0
1030
1.0
1020
0.0
1030
1.0
1000
ANSI31
1070
     0
1070
     1
1071
        5
1071
        7
1070
     0
1070
     1
1071
        4
1040
5273.122356
1040
560.0
1040
2758.65072
1040
560.0
1040
2198.65072
1040
0.0
1040
4713.122356
1040
0.0
1071
        0
1071
        7
1070
     0
1070
     1
1071
        4
1040
962.599418
1040
560.0
1040
603.38925
1040
560.0
1040
43.38925
1040
0.0
1040
402.599418
1040
0.0
1071
        0
1071
        7
1070
     0
1070
     1
1071
        4
1040
5452.727556
1040
560.0
1040
5273.122356
1040
560.0
1040
4713.122356
1040
0.0
1040
4892.727556
1040
0.0
1071
        0
1071
        7
1070
     0
1070
     1
1071
       10
1040
18545.182863
1040
560.0
1040
18752.508938
1040
233.271952
1040
18325.869199
1040
560.0
1040
18098.535039
1040
560.0
1040
17351.791431
1040
241.300973
1040
17880.946175
1040
560.0
1040
12457.32733
1040
560.0
1040
11897.32733
1040
0.0
1040
20877.583374
1040
0.0
1040
21437.583374
1040
560.0
1071
        0
1071
        7
1070
     0
1070
     1
1071
        4
1040
11738.906763
1040
560.0
1040
9224.435127
1040
560.0
1040
8664.435127
1040
0.0
1040
11178.906763
1040
0.0
1071
        0
1070
     1
1070
     1
1040
0.0
1040
1.0
1070
     0
1070
     1
1040
0.785398
1040
161035.821019
1040
243088.557423
1040
-2.245064
1040
2.245064
1070
     0
1040
14.866505
1071
        5
1040
4159.839696
1040
392.398768
1040
0.0
1040
581.165271
1040
240.301633
1040
0.0
1040
4997.402944
1040
240.301633
1040
0.0
1040
13601.451948
1040
88.204009
1040
0.0
1040
9413.651661
1040
235.484409
1040
0.0
1002
}
  0
POLYLINE
  5
7B6
  8
0
 66
     1
 10
0.0
 20
0.0
 30
0.0
  0
VERTEX
  5
842
  8
0
 10
120.0
 20
68.0
 30
0.0
  0
VERTEX
  5
843
  8
0
 10
121.000717
 20
68.0
 30
0.0
  0
VERTEX
  5
844
  8
0
 10
120.999283
 20
65.0
 30
0.0
  0
VERTEX
  5
845
  8
0
 10
133.0
 20
65.0
 30
0.0
  0
VERTEX
  5
846
  8
0
 10
133.0
 20
61.0
 30
0.0
  0
VERTEX
  5
847
  8
0
 10
104.0
 20
61.0
 30
0.0
  0
VERTEX
  5
848
  8
0
 10
104.0
 20
59.0
 30
0.0
  0
VERTEX
  5
849
  8
0
 10
103.0
 20
59.0
 30
0.0
  0
VERTEX
  5
84A
  8
0
 10
103.0
 20
65.0
 30
0.0
  0
VERTEX
  5
84B
  8
0
 10
107.0
 20
65.0
 30
0.0
  0
VERTEX
  5
84C
  8
0
 10
107.0
 20
68.0
 30
0.0
  0
VERTEX
  5
84D
  8
0
 10
108.0
 20
68.0
 30
0.0
  0
VERTEX
  5
84E
  8
0
 10
108.0
 20
65.0
 30
0.0
  0
VERTEX
  5
84F
  8
0
 10
120.0
 20
65.0
 30
0.0
  0
VERTEX
  5
850
  8
0
 10
120.0
 20
68.0
 30
0.0
  0
SEQEND
  5
8FD
  8
0
  0
POLYLINE
  5
811
  8
0
 66
     1
 10
0.0
 20
0.0
 30
0.0
  0
VERTEX
  5
851
  8
0
 10
107.0
 20
74.0
 30
0.0
  0
VERTEX
  5
852
  8
0
 10
107.0
 20
78.0
 30
0.0
  0
VERTEX
  5
853
  8
0
 10
103.0
 20
78.0
 30
0.0
  0
VERTEX
  5
854
  8
0
 10
103.0
 20
79.0
 30
0.0
  0
VERTEX
  5
855
  8
0
 10
105.0
 20
79.0
 30
0.0
  0
VERTEX
  5
856
  8
0
 10
105.0
 20
82.0
 30
0.0
  0
VERTEX
  5
857
  8
0
 10
106.0
 20
82.0
 30
0.0
  0
VERTEX
  5
858
  8
0
 10
106.0
 20
79.0
 30
0.0
  0
VERTEX
  5
859
  8
0
 10
116.0
 20
79.0
 30
0.0
  0
VERTEX
  5
85A
  8
0
 10
116.0
 20
93.0
 30
0.0
  0
VERTEX
  5
85B
  8
0
 10
106.0
 20
93.0
 30
0.0
  0
VERTEX
  5
85C
  8
0
 10
106.0
 20
89.0
 30
0.0
  0
VERTEX
  5
85D
  8
0
 10
105.0
 20
89.0
 30
0.0
  0
VERTEX
  5
85E
  8
0
 10
105.0
 20
93.0
 30
0.0
  0
VERTEX
  5
85F
  8
0
 10
104.0
 20
93.0
 30
0.0
  0
VERTEX
  5
860
  8
0
 10
104.0
 20
95.0
 30
0.0
  0
VERTEX
  5
861
  8
0
 10
105.0
 20
95.0
 30
0.0
  0
VERTEX
  5
862
  8
0
 10
105.0
 20
94.0
 30
0.0
  0
VERTEX
  5
863
  8
0
 10
116.0
 20
94.0
 30
0.0
  0
VERTEX
  5
864
  8
0
 10
116.0
 20
104.0
 30
0.0
  0
VERTEX
  5
865
  8
0
 10
105.0
 20
104.0
 30
0.0
  0
VERTEX
  5
866
  8
0
 10
105.0
 20
103.0
 30
0.0
  0
VERTEX
  5
867
  8
0
 10
104.0
 20
103.0
 30
0.0
  0
VERTEX
  5
868
  8
0
 10
104.0
 20
104.0
 30
0.0
  0
VERTEX
  5
869
  8
0
 10
103.0
 20
104.0
 30
0.0
  0
VERTEX
  5
86A
  8
0
 10
103.0
 20
105.0
 30
0.0
  0
VERTEX
  5
86B
  8
0
 10
117.0
 20
105.0
 30
0.0
  0
VERTEX
  5
86C
  8
0
 10
117.0
 20
79.0
 30
0.0
  0
VERTEX
  5
86D
  8
0
 10
133.0
 20
79.0
 30
0.0
  0
VERTEX
  5
86E
  8
0
 10
133.0
 20
78.0
 30
0.0
  0
VERTEX
  5
86F
  8
0
 10
121.0
 20
78.0
 30
0.0
  0
VERTEX
  5
870
  8
0
 10
121.0
 20
74.0
 30
0.0
  0
VERTEX
  5
871
  8
0
 10
120.0
 20
73.999958
 30
0.0
  0
VERTEX
  5
872
  8
0
 10
120.0
 20
78.0
 30
0.0
  0
VERTEX
  5
873
  8
0
 10
108.0
 20
78.0
 30
0.0
  0
VERTEX
  5
874
  8
0
 10
108.0
 20
74.0
 30
0.0
  0
SEQEND
  5
8FE
  8
0
  0
POLYLINE
  5
835
  8
0
 66
     1
 10
0.0
 20
0.0
 30
0.0
 70
     1
  0
VERTEX
  5
875
  8
0
 10
65.0
 20
43.0
 30
0.0
  0
VERTEX
  5
876
  8
0
 10
104.0
 20
43.0
 30
0.0
  0
VERTEX
  5
877
  8
0
 10
104.0
 20
45.0
 30
0.0
  0
VERTEX
  5
878
  8
0
 10
103.0
 20
45.0
 30
0.0
  0
VERTEX
  5
879
  8
0
 10
103.0
 20
44.0
 30
0.0
  0
VERTEX
  5
87A
  8
0
 10
79.0
 20
44.0
 30
0.0
  0
VERTEX
  5
87B
  8
0
 10
79.0
 20
45.0
 30
0.0
  0
VERTEX
  5
87C
  8
0
 10
78.0
 20
45.0
 30
0.0
  0
VERTEX
  5
87D
  8
0
 10
78.0
 20
44.0
 30
0.0
  0
VERTEX
  5
87E
  8
0
 10
46.0
 20
44.0
 30
0.0
  0
VERTEX
  5
87F
  8
0
 10
46.0
 20
47.0
 30
0.0
  0
VERTEX
  5
880
  8
0
 10
45.0
 20
47.0
 30
0.0
  0
VERTEX
  5
881
  8
0
 10
45.0
 20
44.0
 30
0.0
  0
VERTEX
  5
882
  8
0
 10
42.0
 20
44.0
 30
0.0
  0
VERTEX
  5
883
  8
0
 10
42.0
 20
43.0
 30
0.0
  0
VERTEX
  5
884
  8
0
 10
45.0
 20
43.0
 30
0.0
  0
VERTEX
  5
885
  8
0
 10
45.0
 20
25.0
 30
0.0
  0
VERTEX
  5
886
  8
0
 10
59.0
 20
25.0
 30
0.0
  0
VERTEX
  5
887
  8
0
 10
59.0
 20
6.0
 30
0.0
  0
VERTEX
  5
888
  8
0
 10
6.0
 20
6.0
 30
0.0
  0
VERTEX
  5
889
  8
0
 10
6.0
 20
61.0
 30
0.0
  0
VERTEX
  5
88A
  8
0
 10
45.0
 20
61.0
 30
0.0
  0
VERTEX
  5
88B
  8
0
 10
45.0
 20
56.0
 30
0.0
  0
VERTEX
  5
88C
  8
0
 10
46.0
 20
56.0
 30
0.0
  0
VERTEX
  5
88D
  8
0
 10
46.0
 20
61.0
 30
0.0
  0
VERTEX
  5
88E
  8
0
 10
51.0
 20
61.0
 30
0.0
  0
VERTEX
  5
88F
  8
0
 10
51.0
 20
65.0
 30
0.0
  0
VERTEX
  5
890
  8
0
 10
46.0
 20
65.0
 30
0.0
  0
VERTEX
  5
891
  8
0
 10
46.0
 20
77.0
 30
0.0
  0
VERTEX
  5
892
  8
0
 10
44.0
 20
77.0
 30
0.0
  0
VERTEX
  5
893
  8
0
 10
44.0
 20
65.0
 30
0.0
  0
VERTEX
  5
894
  8
0
 10
6.0
 20
65.0
 30
0.0
  0
VERTEX
  5
895
  8
0
 10
6.0
 20
88.0
 30
0.0
  0
VERTEX
  5
896
  8
0
 10
44.0
 20
88.0
 30
0.0
  0
VERTEX
  5
897
  8
0
 10
44.0
 20
87.0
 30
0.0
  0
VERTEX
  5
898
  8
0
 10
46.0
 20
87.0
 30
0.0
  0
VERTEX
  5
899
  8
0
 10
46.0
 20
95.0
 30
0.0
  0
VERTEX
  5
89A
  8
0
 10
44.0
 20
95.0
 30
0.0
  0
VERTEX
  5
89B
  8
0
 10
44.0
 20
89.0
 30
0.0
  0
VERTEX
  5
89C
  8
0
 10
6.0
 20
89.0
 30
0.0
  0
VERTEX
  5
89D
  8
0
 10
6.0
 20
120.0
 30
0.0
  0
VERTEX
  5
89E
  8
0
 10
29.0
 20
120.0
 30
0.0
  0
VERTEX
  5
89F
  8
0
 10
32.0
 20
120.0
 30
0.0
  0
VERTEX
  5
8A0
  8
0
 10
32.0
 20
104.0
 30
0.0
  0
VERTEX
  5
8A1
  8
0
 10
46.0
 20
104.0
 30
0.0
  0
VERTEX
  5
8A2
  8
0
 10
46.0
 20
120.0
 30
0.0
  0
VERTEX
  5
8A3
  8
0
 10
62.0
 20
120.0
 30
0.0
  0
VERTEX
  5
8A4
  8
0
 10
62.0
 20
77.0
 30
0.0
  0
VERTEX
  5
8A5
  8
0
 10
66.0
 20
77.0
 30
0.0
  0
VERTEX
  5
8A6
  8
0
 10
66.0
 20
120.0
 30
0.0
  0
VERTEX
  5
8A7
  8
0
 10
88.0
 20
120.0
 30
0.0
  0
VERTEX
  5
8A8
  8
0
 10
88.0
 20
65.0
 30
0.0
  0
VERTEX
  5
8A9
  8
0
 10
66.0
 20
65.0
 30
0.0
  0
VERTEX
  5
8AA
  8
0
 10
66.0
 20
66.0
 30
0.0
  0
VERTEX
  5
8AB
  8
0
 10
62.0
 20
66.0
 30
0.0
  0
VERTEX
  5
8AC
  8
0
 10
62.0
 20
65.0
 30
0.0
  0
VERTEX
  5
8AD
  8
0
 10
60.0
 20
65.0
 30
0.0
  0
VERTEX
  5
8AE
  8
0
 10
60.0
 20
61.0
 30
0.0
  0
VERTEX
  5
8AF
  8
0
 10
78.0
 20
61.0
 30
0.0
  0
VERTEX
  5
8B0
  8
0
 10
78.0
 20
59.0
 30
0.0
  0
VERTEX
  5
8B1
  8
0
 10
79.0
 20
59.0
 30
0.0
  0
VERTEX
  5
8B2
  8
0
 10
79.0
 20
61.0
 30
0.0
  0
VERTEX
  5
8B3
  8
0
 10
94.0
 20
61.0
 30
0.0
  0
VERTEX
  5
8B4
  8
0
 10
94.0
 20
65.0
 30
0.0
  0
VERTEX
  5
8B5
  8
0
 10
92.0
 20
65.0
 30
0.0
  0
VERTEX
  5
8B6
  8
0
 10
92.0
 20
120.0
 30
0.0
  0
VERTEX
  5
8B7
  8
0
 10
148.0
 20
120.0
 30
0.0
  0
VERTEX
  5
8B8
  8
0
 10
148.0
 20
79.0
 30
0.0
  0
VERTEX
  5
8B9
  8
0
 10
143.0
 20
79.0
 30
0.0
  0
VERTEX
  5
8BA
  8
0
 10
143.0
 20
78.001358
 30
0.0
  0
VERTEX
  5
8BB
  8
0
 10
148.0
 20
77.998642
 30
0.0
  0
VERTEX
  5
8BC
  8
0
 10
148.0
 20
65.0
 30
0.0
  0
VERTEX
  5
8BD
  8
0
 10
143.0
 20
65.0
 30
0.0
  0
VERTEX
  5
8BE
  8
0
 10
143.0
 20
61.0
 30
0.0
  0
VERTEX
  5
8BF
  8
0
 10
150.0
 20
61.0
 30
0.0
  0
VERTEX
  5
8C0
  8
0
 10
150.0
 20
65.0
 30
0.0
  0
VERTEX
  5
8C1
  8
0
 10
149.0
 20
65.0
 30
0.0
  0
VERTEX
  5
8C2
  8
0
 10
149.0
 20
120.0
 30
0.0
  0
VERTEX
  5
8C3
  8
0
 10
182.0
 20
120.0
 30
0.0
  0
VERTEX
  5
8C4
  8
0
 10
182.0
 20
65.0
 30
0.0
  0
VERTEX
  5
8C5
  8
0
 10
160.0
 20
65.0
 30
0.0
  0
VERTEX
  5
8C6
  8
0
 10
160.0
 20
61.0
 30
0.0
  0
VERTEX
  5
8C7
  8
0
 10
184.0
 20
61.0
 30
0.0
  0
VERTEX
  5
8C8
  8
0
 10
184.0
 20
65.0
 30
0.0
  0
VERTEX
  5
8C9
  8
0
 10
183.0
 20
65.0
 30
0.0
  0
VERTEX
  5
8CA
  8
0
 10
183.0
 20
81.0
 30
0.0
  0
VERTEX
  5
8CB
  8
0
 10
203.0
 20
81.0
 30
0.0
  0
VERTEX
  5
8CC
  8
0
 10
203.0
 20
82.0
 30
0.0
  0
VERTEX
  5
8CD
  8
0
 10
183.0
 20
82.0
 30
0.0
  0
VERTEX
  5
8CE
  8
0
 10
183.0
 20
120.0
 30
0.0
  0
VERTEX
  5
8CF
  8
0
 10
223.0
 20
120.0
 30
0.0
  0
VERTEX
  5
8D0
  8
0
 10
223.0
 20
82.0
 30
0.0
  0
VERTEX
  5
8D1
  8
0
 10
218.0
 20
82.0
 30
0.0
  0
VERTEX
  5
8D2
  8
0
 10
218.0
 20
81.0
 30
0.0
  0
VERTEX
  5
8D3
  8
0
 10
223.0
 20
81.0
 30
0.0
  0
VERTEX
  5
8D4
  8
0
 10
223.0
 20
65.0
 30
0.0
  0
VERTEX
  5
8D5
  8
0
 10
194.0
 20
65.0
 30
0.0
  0
VERTEX
  5
8D6
  8
0
 10
194.0
 20
61.0
 30
0.0
  0
VERTEX
  5
8D7
  8
0
 10
223.0
 20
61.0
 30
0.0
  0
VERTEX
  5
8D8
  8
0
 10
223.0
 20
44.0
 30
0.0
  0
VERTEX
  5
8D9
  8
0
 10
217.0
 20
44.0
 30
0.0
  0
VERTEX
  5
8DA
  8
0
 10
217.0
 20
43.0
 30
0.0
  0
VERTEX
  5
8DB
  8
0
 10
223.0
 20
43.0
 30
0.0
  0
VERTEX
  5
8DC
  8
0
 10
223.0
 20
6.0
 30
0.0
  0
VERTEX
  5
8DD
  8
0
 10
188.0
 20
6.0
 30
0.0
  0
VERTEX
  5
8DE
  8
0
 10
188.0
 20
43.0
 30
0.0
  0
VERTEX
  5
8DF
  8
0
 10
207.0
 20
43.0
 30
0.0
  0
VERTEX
  5
8E0
  8
0
 10
207.0
 20
44.0
 30
0.0
  0
VERTEX
  5
8E1
  8
0
 10
166.0
 20
44.0
 30
0.0
  0
VERTEX
  5
8E2
  8
0
 10
166.0
 20
43.0
 30
0.0
  0
VERTEX
  5
8E3
  8
0
 10
187.0
 20
43.0
 30
0.0
  0
VERTEX
  5
8E4
  8
0
 10
187.0
 20
6.0
 30
0.0
  0
VERTEX
  5
8E5
  8
0
 10
153.0
 20
6.0
 30
0.0
  0
VERTEX
  5
8E6
  8
0
 10
153.0
 20
43.0
 30
0.0
  0
VERTEX
  5
8E7
  8
0
 10
157.0
 20
43.0
 30
0.0
  0
VERTEX
  5
8E8
  8
0
 10
157.0
 20
44.0
 30
0.0
  0
VERTEX
  5
8E9
  8
0
 10
139.0
 20
44.0
 30
0.0
  0
VERTEX
  5
8EA
  8
0
 10
139.0
 20
43.0
 30
0.0
  0
VERTEX
  5
8EB
  8
0
 10
152.0
 20
43.0
 30
0.0
  0
VERTEX
  5
8EC
  8
0
 10
152.0
 20
6.0
 30
0.0
  0
VERTEX
  5
8ED
  8
0
 10
118.0
 20
6.0
 30
0.0
  0
VERTEX
  5
8EE
  8
0
 10
118.0
 20
42.0
 30
0.0
  0
VERTEX
  5
8EF
  8
0
 10
129.0
 20
42.0
 30
0.0
  0
VERTEX
  5
8F0
  8
0
 10
129.0
 20
44.0
 30
0.0
  0
VERTEX
  5
8F1
  8
0
 10
114.0
 20
44.0
 30
0.0
  0
VERTEX
  5
8F2
  8
0
 10
114.0
 20
42.0
 30
0.0
  0
VERTEX
  5
8F3
  8
0
 10
117.0
 20
42.0
 30
0.0
  0
VERTEX
  5
8F4
  8
0
 10
117.0
 20
6.0
 30
0.0
  0
VERTEX
  5
8F5
  8
0
 10
61.0
 20
6.0
 30
0.0
  0
VERTEX
  5
8F6
  8
0
 10
61.0
 20
25.0
 30
0.0
  0
VERTEX
  5
8F7
  8
0
 10
65.0
 20
25.0
 30
0.0
  0
VERTEX
  5
8F8
  8
0
 10
65.0
 20
43.0
 30
0.0
  0
SEQEND
  5
8FF
  8
0
  0
VIEWPORT
  5
214
 67
     1
  8
0
 10
0.0
 20
0.0
 30
0.0
 40
830.230683
 41
340.280126
 68
     1
 69
     1
1001
ACAD
1000
MVIEW
1002
{
1070
    16
1010
0.0
1020
0.0
1030
0.0
1020
0.0
1030
0.0
1010
0.0
1020
0.0
1030
1.0
1020
0.0
1030
1.0
1040
0.0
1040
340.280126
1040
151.627136
1040
129.479246
1040
50.0
1040
0.0
1040
0.0
1070
    16
1070
   100
1070
     0
1070
     3
1070
     0
1070
     0
1070
     0
1070
     0
1040
0.0
1040
0.0
1040
0.0
1040
10.0
1040
10.0
1040
10.0
1040
10.0
1070
     0
1002
{
1002
}
1002
}
  0
ENDSEC
  0
EOF
